<svg width="48" height="21" viewBox="0 0 48 21" fill="none" xmlns="http://www.w3.org/2000/svg">
<path d="M2 2.2168C2.75781 2.07227 3.38672 2 3.88672 2C4.39062 2 4.82031 2.04688 5.17578 2.14062C5.53516 2.23047 5.82617 2.35156 6.04883 2.50391C6.27539 2.65625 6.46094 2.83789 6.60547 3.04883C6.875 3.43945 7.00977 3.89648 7.00977 4.41992C7.00977 5.13477 6.73633 5.72461 6.18945 6.18945C5.64258 6.65039 4.93164 6.88086 4.05664 6.88086H3.06055V10.2559H2V2.2168ZM3.06055 2.91992V6.06055H3.44727C4.31445 6.06055 4.9375 5.93359 5.31641 5.67969C5.69531 5.42188 5.88477 5.02344 5.88477 4.48438C5.88477 3.94141 5.72656 3.52734 5.41016 3.24219C5.08984 2.95703 4.61719 2.81445 3.99219 2.81445C3.65625 2.81445 3.3457 2.84961 3.06055 2.91992Z" fill="#83A5FF"/>
<path d="M11.9609 9.24805C11.6094 9.99023 11.0371 10.3613 10.2441 10.3613C9.92383 10.3613 9.63477 10.291 9.37695 10.1504C9.12305 10.0059 8.92188 9.85156 8.77344 9.6875C8.62891 9.52344 8.50781 9.30078 8.41016 9.01953C8.30859 8.73828 8.25781 8.41797 8.25781 8.05859V4.75977H9.20117V7.73047C9.20117 8.98438 9.65039 9.61133 10.5488 9.61133C10.7793 9.61133 10.9902 9.54883 11.1816 9.42383C11.4746 9.23633 11.7051 8.92773 11.873 8.49805C11.9316 8.34961 11.9609 8.23242 11.9609 8.14648V4.75977H12.9043V10.2559H11.9609V9.24805Z" fill="#83A5FF"/>
<path d="M14.5508 10.2559V4.75977H15.4941V5.76758C15.6348 5.46289 15.834 5.20117 16.0918 4.98242C16.3535 4.76367 16.6484 4.6543 16.9766 4.6543C17.3086 4.6543 17.5801 4.71289 17.791 4.83008C18.0059 4.94336 18.1484 5.06445 18.2188 5.19336L17.8203 5.79102C17.7656 5.7207 17.7129 5.66211 17.6621 5.61523C17.5176 5.47461 17.3047 5.4043 17.0234 5.4043C16.7422 5.4043 16.4883 5.49414 16.2617 5.67383C16.0352 5.85742 15.8555 6.08008 15.7227 6.3418C15.5898 6.60352 15.5137 6.86523 15.4941 7.12695V10.2559H14.5508Z" fill="#83A5FF"/>
<path d="M21.3348 5.4043C20.7918 5.4043 20.3855 5.56836 20.116 5.89648C19.9285 6.12305 19.8055 6.44336 19.7469 6.85742H22.5887C22.5535 6.43164 22.4266 6.08203 22.2078 5.80859C21.9852 5.53906 21.6941 5.4043 21.3348 5.4043ZM23.3152 9.93359C22.8934 10.2188 22.323 10.3613 21.6043 10.3613C20.6941 10.3613 19.993 10.1016 19.5008 9.58203C19.0086 9.0625 18.7625 8.37109 18.7625 7.50781C18.7625 6.38281 19.1277 5.56836 19.8582 5.06445C20.2645 4.79102 20.7176 4.6543 21.2176 4.6543C21.991 4.6543 22.577 4.91602 22.9754 5.43945C23.3113 5.88867 23.491 6.47852 23.5145 7.20898L23.3738 7.56055H19.7059C19.7137 8.20898 19.8875 8.71289 20.2273 9.07227C20.5672 9.42773 21.0203 9.60547 21.5867 9.60547C22.0164 9.60547 22.5086 9.49023 23.0633 9.25977L23.3152 9.93359Z" fill="#83A5FF"/>
<path d="M7.88281 10.1113V18.2559H6.82227V14.3652H3.06055V18.2559H2V10.1055H3.06055V13.5449H6.82227V10.1113H7.88281Z" fill="#83A5FF"/>
<path d="M12.4824 15.7832C11.0449 15.7832 10.3262 16.1406 10.3262 16.8555C10.3262 17.0469 10.3848 17.2246 10.502 17.3887C10.623 17.5527 10.7598 17.6348 10.9121 17.6348H11.1406C12 17.6348 12.459 17.1836 12.5176 16.2812V15.7832H12.4824ZM9.78711 13.0234C10.4902 12.7773 11.0664 12.6543 11.5156 12.6543C11.9648 12.6543 12.3574 12.7656 12.6934 12.9883C13.0293 13.2109 13.2539 13.541 13.3672 13.9785C13.4297 14.2246 13.4609 14.7266 13.4609 15.4844V17.3184C13.4609 17.6621 13.4883 17.9746 13.543 18.2559H12.5938C12.543 18.0957 12.5176 17.9141 12.5176 17.7109V17.6699C12.4199 17.7871 12.3125 17.8887 12.1953 17.9746C11.8281 18.2441 11.4375 18.3789 11.0234 18.3789C10.3281 18.3789 9.84961 18.1309 9.58789 17.6348C9.45117 17.3887 9.38281 17.1367 9.38281 16.8789C9.38281 16.1953 9.7832 15.7012 10.584 15.3965C11.0645 15.2129 11.6738 15.1211 12.4121 15.1211H12.5176V14.5293C12.5176 14.0996 12.4355 13.8066 12.2715 13.6504C12.0801 13.4707 11.7617 13.3809 11.3164 13.3809C10.8711 13.3809 10.377 13.5059 9.83398 13.7559L9.78711 13.0234Z" fill="#83A5FF"/>
<path d="M18.8398 15.2852C18.8398 14.0312 18.3906 13.4043 17.4922 13.4043C17.2617 13.4043 17.0508 13.4668 16.8594 13.5918C16.5664 13.7793 16.3359 14.0879 16.168 14.5176C16.1094 14.666 16.0801 14.7832 16.0801 14.8691V18.2559H15.1367V12.7598H16.0801V13.7676C16.4316 13.0254 17.0039 12.6543 17.7969 12.6543C18.1172 12.6543 18.4043 12.7266 18.6582 12.8711C18.916 13.0117 19.1172 13.1641 19.2617 13.3281C19.6094 13.7148 19.7832 14.2578 19.7832 14.957V18.2559H18.8398V15.2852Z" fill="#83A5FF"/>
<path d="M23.4746 18.3613C23.0215 18.3613 22.6113 18.2363 22.2441 17.9863C21.877 17.7363 21.5957 17.4121 21.4004 17.0137C21.2051 16.6113 21.1074 16.1816 21.1074 15.7246C21.1074 14.8145 21.3711 14.0762 21.8984 13.5098C22.4297 12.9395 23.0879 12.6543 23.873 12.6543C24.2012 12.6543 24.5938 12.7168 25.0508 12.8418V4.6543H26.0176V18.2559H25.0508V17.6113C24.6094 18.1113 24.084 18.3613 23.4746 18.3613ZM25.0508 13.6621C24.7266 13.4902 24.4062 13.4043 24.0898 13.4043C23.543 13.4043 23.0703 13.6113 22.6719 14.0254C22.2578 14.4668 22.0508 14.9922 22.0508 15.6016C22.0508 16.2109 22.1953 16.6973 22.4844 17.0605C22.7773 17.4238 23.1367 17.6055 23.5625 17.6055C23.8516 17.6055 24.127 17.5078 24.3887 17.3125C24.6504 17.1133 24.8711 16.8613 25.0508 16.5566V13.6621Z" fill="#83A5FF"/>
<path d="M29.1641 18.3613C28.3516 18.3613 27.9453 17.8457 27.9453 16.8145V4.6543H28.8887V16.7559C28.8887 17.0566 28.9473 17.2734 29.0645 17.4062C29.1855 17.5352 29.2969 17.5996 29.3984 17.5996C29.5 17.5996 29.7227 17.584 30.0664 17.5527L30.1426 18.2383C29.752 18.3203 29.4258 18.3613 29.1641 18.3613Z" fill="#83A5FF"/>
<path d="M33.3945 13.4043C32.8516 13.4043 32.4453 13.5684 32.1758 13.8965C31.9883 14.123 31.8652 14.4434 31.8066 14.8574H34.6484C34.6133 14.4316 34.4863 14.082 34.2676 13.8086C34.0449 13.5391 33.7539 13.4043 33.3945 13.4043ZM35.375 17.9336C34.9531 18.2188 34.3828 18.3613 33.6641 18.3613C32.7539 18.3613 32.0527 18.1016 31.5605 17.582C31.0684 17.0625 30.8223 16.3711 30.8223 15.5078C30.8223 14.3828 31.1875 13.5684 31.918 13.0645C32.3242 12.791 32.7773 12.6543 33.2773 12.6543C34.0508 12.6543 34.6367 12.916 35.0352 13.4395C35.3711 13.8887 35.5508 14.4785 35.5742 15.209L35.4336 15.5605H31.7656C31.7734 16.209 31.9473 16.7129 32.2871 17.0723C32.627 17.4277 33.0801 17.6055 33.6465 17.6055C34.0762 17.6055 34.5684 17.4902 35.123 17.2598L35.375 17.9336Z" fill="#83A5FF"/>
<path d="M36.9336 18.2559V12.7598H37.877V13.7676C38.0176 13.4629 38.2168 13.2012 38.4746 12.9824C38.7363 12.7637 39.0312 12.6543 39.3594 12.6543C39.6914 12.6543 39.9629 12.7129 40.1738 12.8301C40.3887 12.9434 40.5312 13.0645 40.6016 13.1934L40.2031 13.791C40.1484 13.7207 40.0957 13.6621 40.0449 13.6152C39.9004 13.4746 39.6875 13.4043 39.4062 13.4043C39.125 13.4043 38.8711 13.4941 38.6445 13.6738C38.418 13.8574 38.2383 14.0801 38.1055 14.3418C37.9727 14.6035 37.8965 14.8652 37.877 15.127V18.2559H36.9336Z" fill="#83A5FF"/>
<path d="M43.0742 17.6055C43.75 17.6055 44.0879 17.3145 44.0879 16.7324C44.0879 16.3809 43.7656 16.0996 43.1211 15.8887L42.5469 15.6895C42.1367 15.5449 41.832 15.3398 41.6328 15.0742C41.4375 14.8047 41.3398 14.4883 41.3398 14.125C41.3398 13.7578 41.5098 13.4219 41.8496 13.1172C42.1895 12.8086 42.625 12.6543 43.1562 12.6543C43.5078 12.6543 43.8203 12.7012 44.0938 12.7949C44.3672 12.8848 44.5781 12.9883 44.7266 13.1055L44.3926 13.8086C44.2715 13.7109 44.0996 13.6191 43.877 13.5332C43.6543 13.4473 43.4141 13.4043 43.1562 13.4043C42.9023 13.4043 42.6934 13.4805 42.5293 13.6328C42.3652 13.7852 42.2832 13.9551 42.2832 14.1426C42.2832 14.3301 42.3457 14.4863 42.4707 14.6113C42.5957 14.7363 42.8477 14.8652 43.2266 14.998L43.8008 15.1973C44.2188 15.3418 44.5293 15.5312 44.7324 15.7656C44.9316 16.0039 45.0312 16.3477 45.0312 16.7969C45.0312 17.2461 44.8594 17.6191 44.5156 17.916C44.1719 18.2129 43.7031 18.3613 43.1094 18.3613C42.793 18.3613 42.4883 18.3281 42.1953 18.2617C41.9062 18.1992 41.582 18.0645 41.2227 17.8574L41.5625 17.1309C41.8633 17.3105 42.1191 17.4355 42.3301 17.5059C42.541 17.5723 42.7891 17.6055 43.0742 17.6055Z" fill="#83A5FF"/>
</svg>
